<svg width="76" height="76" viewBox="0 0 76 76" fill="none" xmlns="http://www.w3.org/2000/svg">
<path d="M10.1644 28.8921L1.27439 36.002C1.06262 36.1711 0.886329 36.3805 0.755592 36.6179C0.624856 36.8553 0.542156 37.1161 0.512428 37.3855C0.482701 37.6549 0.506428 37.9275 0.582253 38.1877C0.658077 38.448 0.784533 38.6908 0.954323 38.9021C1.04549 39.0232 1.15328 39.1308 1.27439 39.2219L10.1644 46.332C10.8399 46.8765 11.3671 47.5825 11.6975 48.3848C12.0278 49.1871 12.1506 50.0596 12.0543 50.9219L10.8043 62.2319C10.7752 62.5012 10.7995 62.7736 10.8757 63.0335C10.9519 63.2933 11.0787 63.5355 11.2486 63.7463C11.4186 63.9572 11.6285 64.1326 11.8663 64.2622C12.1041 64.3919 12.3651 64.4733 12.6344 64.502C12.7837 64.522 12.935 64.522 13.0843 64.502L24.3543 63.282C25.2158 63.1895 26.0867 63.315 26.8869 63.647C27.6872 63.979 28.3912 64.5068 28.9343 65.1819L36.0443 74.072C36.2143 74.2841 36.4245 74.4607 36.6628 74.5916C36.9011 74.7224 37.1629 74.805 37.4331 74.8347C37.7033 74.8644 37.9767 74.8406 38.2378 74.7647C38.4988 74.6887 38.7422 74.5622 38.9543 74.3921C39.0754 74.3009 39.1832 74.1931 39.2744 74.072L46.3844 65.1819C46.9173 64.515 47.6034 63.9869 48.3844 63.6421C49.1847 63.3139 50.0543 63.1901 50.9144 63.282L62.2243 64.542C62.4949 64.5726 62.7689 64.5494 63.0305 64.4739C63.2921 64.3984 63.5364 64.272 63.7491 64.1021C63.9618 63.9321 64.1389 63.722 64.2702 63.4834C64.4016 63.2449 64.4845 62.9826 64.5144 62.7119C64.5244 62.5654 64.5244 62.4185 64.5144 62.272L63.2544 50.9519C63.1591 50.0902 63.2834 49.2185 63.6156 48.4177C63.9478 47.617 64.4771 46.9133 65.1544 46.3721L74.0443 39.262C74.2561 39.0928 74.4325 38.8834 74.5632 38.646C74.6939 38.4086 74.7765 38.1478 74.8063 37.8784C74.836 37.609 74.8123 37.3364 74.7364 37.0762C74.6606 36.816 74.5341 36.5733 74.3644 36.3621C74.2681 36.2425 74.1609 36.1319 74.0443 36.032L65.1544 28.9219C64.4771 28.3806 63.9478 27.677 63.6156 26.8762C63.2834 26.0755 63.1591 25.2037 63.2544 24.342L64.5144 13.032C64.5478 12.7235 64.5115 12.4115 64.4081 12.119C64.3046 11.8265 64.1367 11.561 63.9168 11.342C63.697 11.1231 63.4308 10.9564 63.1378 10.8543C62.8448 10.7521 62.5326 10.7172 62.2243 10.752L50.9144 12.012C50.0527 12.1072 49.1809 11.983 48.3801 11.6508C47.5793 11.3186 46.8756 10.7892 46.3343 10.1119L39.2243 1.22193C38.851 0.801693 38.3279 0.544507 37.7672 0.505254C37.2064 0.466001 36.6526 0.647844 36.2243 1.01197L36.0144 1.22193L28.9144 10.1119C28.3704 10.7886 27.6647 11.3174 26.8625 11.6494C26.0603 11.9815 25.1874 12.1061 24.3243 12.012L13.0144 10.752C12.7065 10.7169 12.3945 10.7517 12.1019 10.8539C11.8093 10.9561 11.5436 11.1229 11.3244 11.342C11.1053 11.5612 10.9385 11.827 10.8363 12.1196C10.7341 12.4122 10.6993 12.7241 10.7344 13.032L11.9844 24.3521C12.0829 25.2005 11.9681 26.06 11.6502 26.8528C11.3324 27.6456 10.8217 28.3467 10.1644 28.8921ZM12.7444 32.1121C13.9667 31.1371 14.9217 29.8677 15.5199 28.4231C16.118 26.9785 16.3398 25.4058 16.1644 23.8521L15.1644 15.1019L23.9144 16.1019C25.4681 16.2773 27.0408 16.0555 28.4855 15.4574C29.9301 14.8593 31.1993 13.9044 32.1743 12.682L37.6743 5.81202L43.1644 12.682C44.1422 13.9037 45.4133 14.8581 46.8594 15.4561C48.3054 16.0541 49.8792 16.2762 51.4343 16.1019L60.1843 15.1019L59.1843 23.842C59.014 25.3978 59.2391 26.9714 59.8387 28.417C60.4383 29.8626 61.393 31.1335 62.6144 32.1121L69.4844 37.6121L62.6144 43.1121C61.3909 44.0866 60.4345 45.3553 59.8347 46.7998C59.2348 48.2444 59.011 49.8176 59.1843 51.3721L60.1843 60.1221L51.4343 59.1221C49.8794 58.9497 48.3062 59.1726 46.8605 59.7705C45.4147 60.3684 44.1434 61.3217 43.1644 62.542L37.6743 69.4119L32.1743 62.542C31.3053 61.4566 30.2036 60.5804 28.9504 59.978C27.6973 59.3757 26.3247 59.0626 24.9343 59.062C24.6001 59.0623 24.2662 59.0824 23.9343 59.1221L15.1843 60.1221L16.1843 51.3821C16.3567 49.8271 16.1336 48.2538 15.5357 46.8081C14.9379 45.3624 13.9847 44.0911 12.7644 43.1121L5.89439 37.6121L12.7444 32.1121Z" fill="#787D86" stroke="#F7F7F7" stroke-miterlimit="10"/>
<path d="M48.6471 25.8114L23.8418 50.6167L26.7621 53.537L51.5673 28.7317L48.6471 25.8114Z" fill="#787D86" stroke="#F7F7F7" stroke-miterlimit="10"/>
<path d="M29.4343 37.6121C30.6606 37.6121 31.8593 37.2484 32.8789 36.5671C33.8985 35.8859 34.6932 34.9176 35.1625 33.7847C35.6317 32.6518 35.7545 31.4051 35.5153 30.2024C35.276 28.9997 34.6856 27.8949 33.8185 27.0278C32.9514 26.1607 31.8466 25.5703 30.6439 25.3311C29.4412 25.0918 28.1947 25.2146 27.0618 25.6838C25.9289 26.1531 24.9606 26.9479 24.2793 27.9675C23.598 28.9871 23.2344 30.1856 23.2344 31.4119C23.237 33.0554 23.8911 34.6311 25.0532 35.7932C26.2154 36.9554 27.7908 37.6094 29.4343 37.6121ZM29.4343 29.342C29.8437 29.342 30.2439 29.4635 30.5844 29.6909C30.9248 29.9184 31.1901 30.2416 31.3468 30.6199C31.5035 30.9981 31.5445 31.4144 31.4646 31.8159C31.3847 32.2175 31.1876 32.5862 30.8981 32.8757C30.6086 33.1652 30.2398 33.3623 29.8383 33.4421C29.4367 33.522 29.0205 33.4811 28.6422 33.3245C28.264 33.1678 27.9407 32.9024 27.7133 32.562C27.4858 32.2216 27.3644 31.8213 27.3644 31.4119C27.3644 30.8629 27.5825 30.3364 27.9707 29.9482C28.3589 29.56 28.8853 29.342 29.4343 29.342Z" fill="#787D86" stroke="#F7F7F7" stroke-miterlimit="10"/>
<path d="M45.9744 41.7422C44.7453 41.7402 43.5433 42.1031 42.5206 42.7847C41.4978 43.4663 40.7003 44.4359 40.2291 45.5711C39.7578 46.7062 39.6339 47.9558 39.8732 49.1614C40.1125 50.3669 40.7042 51.4742 41.5733 52.3433C42.4424 53.2124 43.5499 53.8042 44.7554 54.0435C45.961 54.2828 47.2104 54.1588 48.3455 53.6875C49.4806 53.2162 50.4504 52.4188 51.132 51.396C51.8136 50.3732 52.1763 49.1712 52.1744 47.9421C52.1717 46.2986 51.5177 44.7232 50.3555 43.561C49.1934 42.3989 47.6179 41.7448 45.9744 41.7422ZM45.9744 50.0122C45.5646 50.0142 45.1634 49.8945 44.8217 49.6682C44.48 49.442 44.2131 49.1195 44.0549 48.7415C43.8967 48.3634 43.8543 47.9466 43.933 47.5444C44.0118 47.1422 44.208 46.7727 44.4971 46.4822C44.7862 46.1917 45.1551 45.9935 45.5569 45.9128C45.9587 45.8322 46.3754 45.8724 46.7542 46.0288C47.133 46.1852 47.457 46.4506 47.6849 46.7913C47.9128 47.1319 48.0345 47.5323 48.0345 47.9421C48.0358 48.2135 47.9835 48.4826 47.8805 48.7337C47.7776 48.9847 47.626 49.2129 47.4346 49.4053C47.2432 49.5976 47.0157 49.7503 46.7651 49.8545C46.5145 49.9586 46.2458 50.0122 45.9744 50.0122Z" fill="#787D86" stroke="#F7F7F7" stroke-miterlimit="10"/>
</svg>
