<svg width="91" height="88" viewBox="0 0 91 88" fill="none" xmlns="http://www.w3.org/2000/svg">
<path d="M6.45002 56.0499H40.54C40.54 80.8999 60.34 86.12 64.3 86.91C64.9606 87.037 65.6394 87.037 66.3 86.91C70.3 86.12 90.07 80.9099 90.07 56.0499V41.1801C90.0765 40.2671 89.7309 39.3866 89.1052 38.7218C88.4794 38.057 87.6216 37.6588 86.71 37.61C84.7085 37.5188 82.7198 37.2411 80.77 36.7802V6.44007C80.77 5.62635 80.6096 4.82064 80.2979 4.06898C79.9862 3.31732 79.5293 2.63438 78.9534 2.05946C78.3776 1.48453 77.6941 1.02888 76.9419 0.718392C76.1897 0.407904 75.3837 0.248693 74.57 0.250008H6.45002C4.80741 0.250006 3.2319 0.901822 2.06947 2.06239C0.907028 3.22295 0.252657 4.79746 0.250008 6.44007V49.83C0.248694 50.6455 0.408012 51.4532 0.71888 52.2072C1.02975 52.9611 1.48605 53.6464 2.06178 54.224C2.6375 54.8016 3.32136 55.2603 4.07429 55.5736C4.82722 55.8869 5.63451 56.0486 6.45002 56.0499ZM87.02 41.2001V56.07C87.02 78.5 69.3 83.19 65.74 83.9C65.4656 83.9499 65.1844 83.9499 64.91 83.9C61.36 83.18 43.64 78.5 43.64 56.07V41.2001C43.6368 41.0846 43.6772 40.972 43.7532 40.8849C43.8292 40.7978 43.9351 40.7426 44.05 40.7301C55.69 40.1601 62.16 34.6501 64.98 31.4201C65.0177 31.3736 65.0644 31.335 65.1171 31.3068C65.1699 31.2785 65.2278 31.2611 65.2874 31.2555C65.347 31.2499 65.4071 31.2564 65.4642 31.2743C65.5214 31.2922 65.5743 31.3213 65.62 31.36L65.68 31.4201C68.5 34.6501 74.96 40.1601 86.61 40.7301C86.724 40.7448 86.8286 40.8007 86.9042 40.8873C86.9797 40.9739 87.0209 41.0852 87.02 41.2001ZM68.02 29.39C67.6925 29.0358 67.2985 28.7495 66.8603 28.5477C66.4221 28.346 65.9485 28.2326 65.4664 28.214C64.9844 28.1954 64.5035 28.2721 64.0511 28.4396C63.5987 28.607 63.1837 28.8621 62.83 29.1901L62.64 29.39C60.15 32.25 54.39 37.13 43.89 37.64C42.9809 37.6889 42.1257 38.086 41.5018 38.7489C40.878 39.4119 40.5335 40.2898 40.54 41.2001V52.9501H6.45002C5.62785 52.9501 4.83931 52.6235 4.25794 52.0421C3.67658 51.4608 3.34998 50.6722 3.34998 49.85V23.5101H77.72V35.87C73.9944 34.5676 70.6579 32.3457 68.02 29.41V29.39ZM77.72 20.39H3.34998V12.64H77.72V20.39ZM6.45002 3.39002H74.62C75.4422 3.39002 76.2307 3.71662 76.812 4.29798C77.3934 4.87934 77.72 5.66783 77.72 6.49V9.5901H3.34998V6.49C3.35527 5.6713 3.68423 4.88797 4.26502 4.31092C4.84581 3.73388 5.6313 3.41003 6.45002 3.41004V3.39002Z" fill="#787D86" stroke="#F7F7F7" stroke-width="0.5" stroke-miterlimit="10"/>
<path d="M55.5798 62.7003C55.2854 62.4302 54.898 62.2842 54.4986 62.2928C54.0991 62.3014 53.7185 62.4639 53.436 62.7464C53.1535 63.0289 52.9909 63.4097 52.9823 63.8092C52.9737 64.2086 53.1197 64.5958 53.3898 64.8902L59.5798 71.0902C59.8727 71.3794 60.2681 71.5411 60.6798 71.5401H60.8098C61.0341 71.5203 61.2513 71.4522 61.4465 71.3399C61.6416 71.2277 61.81 71.0741 61.9398 70.8902L77.4298 49.2003C77.6468 48.8655 77.7263 48.4599 77.6518 48.068C77.5774 47.676 77.3547 47.3279 77.03 47.096C76.7054 46.8641 76.3038 46.7662 75.9089 46.8228C75.5139 46.8795 75.1561 47.0864 74.9098 47.4002L60.4798 67.6002L55.5798 62.7003Z" fill="#787D86" stroke="#F7F7F7" stroke-width="0.5" stroke-miterlimit="10"/>
<path d="M26.5899 37.4102H7.99994C7.58885 37.4102 7.19461 37.5736 6.90393 37.8643C6.61325 38.1549 6.44995 38.5491 6.44995 38.9602C6.44995 39.3713 6.61325 39.7655 6.90393 40.0562C7.19461 40.3468 7.58885 40.5103 7.99994 40.5103H26.5899C27.001 40.5103 27.3952 40.3468 27.6859 40.0562C27.9766 39.7655 28.1399 39.3713 28.1399 38.9602C28.1399 38.5491 27.9766 38.1549 27.6859 37.8643C27.3952 37.5736 27.001 37.4102 26.5899 37.4102Z" fill="#787D86" stroke="#F7F7F7" stroke-width="0.5" stroke-miterlimit="10"/>
<path d="M20.3899 43.6504H7.99994C7.58885 43.6504 7.19461 43.8138 6.90393 44.1045C6.61325 44.3952 6.44995 44.7894 6.44995 45.2004C6.44995 45.6115 6.61325 46.0057 6.90393 46.2964C7.19461 46.5871 7.58885 46.7505 7.99994 46.7505H20.3899C20.801 46.7505 21.1953 46.5871 21.486 46.2964C21.7766 46.0057 21.9399 45.6115 21.9399 45.2004C21.9399 44.7894 21.7766 44.3952 21.486 44.1045C21.1953 43.8138 20.801 43.6504 20.3899 43.6504Z" fill="#787D86" stroke="#F7F7F7" stroke-width="0.5" stroke-miterlimit="10"/>
</svg>
