<svg width="108" height="69" viewBox="0 0 108 69" fill="none" xmlns="http://www.w3.org/2000/svg">
<path d="M99.3159 28.9049L96.5559 17.9049C96.9299 17.8266 97.2654 17.6218 97.5059 17.3248C97.7464 17.0279 97.8771 16.6571 97.8759 16.275V14.495C97.8759 12.6385 97.1384 10.858 95.8256 9.54529C94.5129 8.23253 92.7324 7.495 90.8759 7.495H78.3159V3.82495C78.3132 2.91077 77.9489 2.03486 77.3025 1.38843C76.656 0.741998 75.7801 0.377638 74.8659 0.375H10.8659C9.95169 0.377638 9.07569 0.741998 8.42926 1.38843C7.78283 2.03486 7.4185 2.91077 7.41586 3.82495V34.0651C7.44838 34.4844 7.63792 34.8758 7.94658 35.1615C8.25524 35.4472 8.66031 35.6058 9.08087 35.6058C9.50143 35.6058 9.9065 35.4472 10.2152 35.1615C10.5238 34.8758 10.7133 34.4844 10.7459 34.0651V3.82495C10.7458 3.80962 10.7489 3.79444 10.7551 3.7804C10.7612 3.76635 10.7702 3.75376 10.7815 3.74341C10.7928 3.73305 10.8062 3.72524 10.8207 3.72034C10.8352 3.71544 10.8506 3.71357 10.8659 3.71497H74.8659C74.8951 3.71497 74.923 3.72656 74.9436 3.74719C74.9643 3.76782 74.9759 3.79578 74.9759 3.82495V34.0651C74.9759 34.508 75.1518 34.9325 75.465 35.2457C75.7782 35.5589 76.203 35.735 76.6459 35.735C77.0888 35.735 77.5135 35.5589 77.8267 35.2457C78.1399 34.9325 78.3159 34.508 78.3159 34.0651V32.1749H97.9959C99.1476 32.1781 100.269 32.5456 101.199 33.2245C102.13 33.9034 102.821 34.8591 103.176 35.955H97.9859C97.5456 35.955 97.1234 36.13 96.8121 36.4413C96.5008 36.7526 96.3259 37.1746 96.3259 37.6149V41.1749C96.3259 42.5594 96.8758 43.8871 97.8548 44.8661C98.8337 45.845 100.161 46.3949 101.546 46.3949H103.436V53.735H99.0759C98.3668 51.6453 97.021 49.8302 95.2274 48.5448C93.4338 47.2594 91.2825 46.5682 89.0759 46.5682C86.8692 46.5682 84.718 47.2594 82.9244 48.5448C81.1308 49.8302 79.7849 51.6453 79.0759 53.735H78.2759V41.1749C78.2759 40.732 78.0999 40.3072 77.7867 39.994C77.4736 39.6808 77.0488 39.505 76.6059 39.505C76.163 39.505 75.7382 39.6808 75.425 39.994C75.1118 40.3072 74.9359 40.732 74.9359 41.1749V53.735H40.3859C39.6768 51.6453 38.331 49.8302 36.5374 48.5448C34.7438 47.2594 32.5925 46.5682 30.3859 46.5682C28.1792 46.5682 26.028 47.2594 24.2344 48.5448C22.4408 49.8302 21.0949 51.6453 20.3859 53.735H10.8059C10.7906 53.7364 10.7752 53.7345 10.7607 53.7296C10.7462 53.7247 10.7328 53.7168 10.7215 53.7064C10.7102 53.6961 10.7012 53.6836 10.6951 53.6696C10.6889 53.6555 10.6858 53.6402 10.6859 53.6249V49.975H17.9159C18.1454 49.9928 18.3761 49.9629 18.5935 49.8873C18.8109 49.8117 19.0103 49.6921 19.1793 49.5358C19.3482 49.3794 19.483 49.1898 19.5752 48.9789C19.6674 48.768 19.715 48.5401 19.715 48.3099C19.715 48.0797 19.6674 47.8522 19.5752 47.6412C19.483 47.4303 19.3482 47.2407 19.1793 47.0844C19.0103 46.928 18.8109 46.8081 18.5935 46.7325C18.3761 46.6569 18.1454 46.6271 17.9159 46.6449H1.91586C1.49656 46.6774 1.10497 46.867 0.819321 47.1757C0.53367 47.4843 0.375 47.8894 0.375 48.3099C0.375 48.7305 0.53367 49.1356 0.819321 49.4442C1.10497 49.7529 1.49656 49.9425 1.91586 49.975H7.36588V53.6449C7.36851 54.5591 7.73283 55.4352 8.37926 56.0817C9.02569 56.7281 9.90169 57.0925 10.8159 57.0951H19.8159V57.205C19.8159 60.0056 20.9284 62.6916 22.9088 64.672C24.8892 66.6524 27.5752 67.765 30.3759 67.765C33.1766 67.765 35.8625 66.6524 37.8429 64.672C39.8233 62.6916 40.9359 60.0056 40.9359 57.205V57.0951H78.5059V57.205C78.5059 60.0056 79.6184 62.6916 81.5988 64.672C83.5792 66.6524 86.2652 67.765 89.0659 67.765C91.8665 67.765 94.5525 66.6524 96.5329 64.672C98.5133 62.6916 99.6259 60.0056 99.6259 57.205V57.0951H105.076C105.519 57.0951 105.944 56.919 106.257 56.6058C106.57 56.2926 106.746 55.8678 106.746 55.4249V37.6349C106.757 35.5315 106.013 33.4938 104.65 31.892C103.287 30.2901 101.394 29.2303 99.3159 28.9049ZM78.3159 10.795H90.8759C91.8484 10.7977 92.7804 11.1852 93.468 11.8729C94.1557 12.5606 94.5432 13.4924 94.5459 14.465V14.5751H78.3159V10.795ZM78.3159 28.795V17.9049H93.1359L95.8559 28.795H78.3159ZM30.4059 64.3649C28.9755 64.3649 27.5772 63.9408 26.3881 63.1459C25.1989 62.351 24.2722 61.2212 23.7253 59.8995C23.1783 58.5778 23.0358 57.1236 23.3155 55.7208C23.5953 54.3181 24.2849 53.0299 25.297 52.0192C26.3092 51.0084 27.5984 50.3204 29.0015 50.0426C30.4047 49.7648 31.8587 49.9094 33.1796 50.4581C34.5005 51.0069 35.629 51.9351 36.4223 53.1254C37.2155 54.3156 37.6378 55.7145 37.6359 57.1449C37.6332 59.0616 36.8707 60.8992 35.5153 62.2545C34.16 63.6098 32.3226 64.3722 30.4059 64.3749V64.3649ZM89.0959 64.3649C87.6655 64.3649 86.2673 63.9408 85.0781 63.1459C83.8889 62.351 82.9622 61.2212 82.4153 59.8995C81.8683 58.5778 81.7257 57.1236 82.0055 55.7208C82.2853 54.3181 82.9749 53.0299 83.987 52.0192C84.9992 51.0084 86.2884 50.3204 87.6915 50.0426C89.0946 49.7648 90.5487 49.9094 91.8696 50.4581C93.1905 51.0069 94.319 51.9351 95.1122 53.1254C95.9055 54.3156 96.3278 55.7145 96.3259 57.1449C96.3259 59.0624 95.5641 60.9016 94.2083 62.2574C92.8524 63.6133 91.0134 64.3749 89.0959 64.3749V64.3649ZM103.436 43.025H101.546C101.045 43.025 100.564 42.8258 100.209 42.4713C99.855 42.1169 99.6559 41.6361 99.6559 41.1349V39.245H103.436V43.025Z" fill="#787D86" stroke="#F7F7F7" stroke-width="0.75" stroke-miterlimit="10"/>
<path d="M30.4059 53.7051C29.7236 53.7051 29.0566 53.9075 28.4892 54.2866C27.9219 54.6657 27.4797 55.2046 27.2186 55.835C26.9574 56.4654 26.8891 57.1589 27.0222 57.8281C27.1553 58.4974 27.4839 59.1122 27.9664 59.5947C28.4489 60.0772 29.0636 60.4057 29.7329 60.5388C30.4021 60.6719 31.0958 60.6037 31.7262 60.3425C32.3566 60.0814 32.8954 59.6391 33.2745 59.0718C33.6536 58.5044 33.8559 57.8374 33.8559 57.155C33.8533 56.2408 33.489 55.3649 32.8425 54.7185C32.1961 54.0721 31.3201 53.7077 30.4059 53.7051Z" fill="#787D86" stroke="#F7F7F7" stroke-width="0.75" stroke-miterlimit="10"/>
<path d="M89.0959 53.7051C88.4135 53.7051 87.7465 53.9075 87.1791 54.2866C86.6118 54.6657 86.1696 55.2046 85.9085 55.835C85.6474 56.4654 85.579 57.1589 85.7122 57.8281C85.8453 58.4974 86.1739 59.1122 86.6564 59.5947C87.1388 60.0772 87.7536 60.4057 88.4228 60.5388C89.0921 60.6719 89.7857 60.6037 90.4161 60.3425C91.0466 60.0814 91.5854 59.6391 91.9645 59.0718C92.3435 58.5044 92.5459 57.8374 92.5459 57.155C92.5459 56.24 92.1824 55.3626 91.5354 54.7156C90.8884 54.0686 90.0109 53.7051 89.0959 53.7051Z" fill="#787D86" stroke="#F7F7F7" stroke-width="0.75" stroke-miterlimit="10"/>
<path d="M69.5359 46.5949H44.6359C44.4064 46.5771 44.1757 46.6067 43.9583 46.6823C43.7409 46.7579 43.5414 46.8777 43.3725 47.0341C43.2036 47.1904 43.0688 47.38 42.9766 47.591C42.8844 47.8019 42.8368 48.0295 42.8368 48.2597C42.8368 48.4898 42.8844 48.7177 42.9766 48.9286C43.0688 49.1395 43.2036 49.3291 43.3725 49.4855C43.5414 49.6418 43.7409 49.7615 43.9583 49.8371C44.1757 49.9127 44.4064 49.9425 44.6359 49.9247H69.5359C69.7654 49.9425 69.9961 49.9127 70.2135 49.8371C70.431 49.7615 70.6304 49.6418 70.7994 49.4855C70.9683 49.3291 71.1031 49.1395 71.1953 48.9286C71.2875 48.7177 71.3351 48.4898 71.3351 48.2597C71.3351 48.0295 71.2875 47.8019 71.1953 47.591C71.1031 47.38 70.9683 47.1904 70.7994 47.0341C70.6304 46.8777 70.431 46.7579 70.2135 46.6823C69.9961 46.6067 69.7654 46.5771 69.5359 46.5949Z" fill="#787D86" stroke="#F7F7F7" stroke-width="0.75" stroke-miterlimit="10"/>
<path d="M26.8459 39.4751H5.50595C5.06304 39.4751 4.63826 39.6509 4.32507 39.9641C4.01189 40.2773 3.83594 40.7021 3.83594 41.145C3.83594 41.5879 4.01189 42.0127 4.32507 42.3259C4.63826 42.6391 5.06304 42.8152 5.50595 42.8152H26.8459C27.2889 42.8152 27.7136 42.6391 28.0268 42.3259C28.34 42.0127 28.5159 41.5879 28.5159 41.145C28.5159 40.7021 28.34 40.2773 28.0268 39.9641C27.7136 39.6509 27.2889 39.4751 26.8459 39.4751Z" fill="#787D86" stroke="#F7F7F7" stroke-width="0.75" stroke-miterlimit="10"/>
<path d="M58.2659 16.8452C57.9527 16.5326 57.5283 16.3569 57.0858 16.3569C56.6434 16.3569 56.219 16.5326 55.9059 16.8452L41.0759 31.675L33.3659 23.9551C33.2132 23.7902 33.0288 23.6578 32.8238 23.5659C32.6187 23.474 32.3973 23.4245 32.1726 23.4202C31.9479 23.4159 31.7247 23.4568 31.5163 23.5408C31.3079 23.6248 31.1186 23.7501 30.9597 23.9089C30.8008 24.0678 30.6756 24.2572 30.5916 24.4656C30.5077 24.674 30.4666 24.8972 30.4709 25.1218C30.4752 25.3465 30.5248 25.5679 30.6167 25.7729C30.7086 25.978 30.841 26.1625 31.0059 26.3152L39.8959 35.2051C40.209 35.5177 40.6334 35.6934 41.0759 35.6934C41.5183 35.6934 41.9427 35.5177 42.2559 35.2051L58.2559 19.2051C58.5698 18.8933 58.7473 18.4696 58.7491 18.0271C58.751 17.5846 58.5772 17.1597 58.2659 16.8452Z" fill="#787D86" stroke="#F7F7F7" stroke-width="0.75" stroke-miterlimit="10"/>
</svg>
